<?xml version="1.0" standalone="no"?>
<!DOCTYPE svg PUBLIC "-//W3C//DTD SVG 20010904//EN"
 "http://www.w3.org/TR/2001/REC-SVG-20010904/DTD/svg10.dtd">
<svg version="1.0" xmlns="http://www.w3.org/2000/svg"
 width="128.000000pt" height="128.000000pt" viewBox="0 0 128.000000 128.000000"
 preserveAspectRatio="xMidYMid meet">
<metadata>
Created by potrace 1.11, written by Peter Selinger 2001-2013
</metadata>
<g transform="translate(0.000000,128.000000) scale(0.100000,-0.100000)"
fill="#000000" stroke="none">
<path d="M277 1253 c-13 -12 -7 -33 23 -82 l31 -49 -50 -50 c-55 -55 -77 -110
-67 -165 12 -63 74 -94 115 -56 27 25 27 45 0 59 -24 13 -21 30 8 41 16 6 30
1 56 -20 l35 -27 -47 -50 c-110 -117 -232 -254 -282 -313 l-54 -65 0 -70 c0
-52 5 -78 18 -98 43 -64 156 -78 225 -29 22 16 43 34 46 40 4 6 41 10 84 10
98 0 167 21 219 66 l42 36 11 -43 c28 -106 69 -254 90 -328 l7 -25 224 0 224
0 3 379 c2 289 -1 381 -10 387 -6 4 -29 6 -49 5 -35 -3 -37 -2 -27 20 30 65
-28 149 -112 160 -47 6 -48 7 -35 28 23 35 0 96 -36 96 -11 0 -18 -4 -15 -9 3
-4 -3 -16 -13 -25 -15 -14 -31 -16 -78 -12 -32 3 -59 5 -60 5 -2 1 -3 7 -3 14
0 7 -14 29 -30 49 -27 33 -34 36 -56 28 -14 -6 -27 -10 -29 -10 -2 0 -14 18
-26 40 -28 50 -53 52 -70 6 -11 -32 -14 -33 -53 -29 -23 3 -60 0 -83 -5 -41
-9 -41 -9 -93 44 -50 52 -69 62 -83 47z"/>
</g>
</svg>
